<svg width="25" height="25" viewBox="0 0 25 25" fill="none" xmlns="http://www.w3.org/2000/svg">
<path d="M12.5242 0.000488281H12.4673C5.57748 0.000488281 -0.0078125 5.58399 -0.0078125 12.4716V12.5285C-0.0078125 19.4161 5.57748 24.9996 12.4673 24.9996H12.5242C19.414 24.9996 24.9993 19.4161 24.9993 12.5285V12.4716C24.9993 5.58399 19.414 0.000488281 12.5242 0.000488281Z" fill="#383D38"/>
<path d="M18.5407 9.04445V11.4048C18.128 11.3646 17.5919 11.2708 16.9987 11.0536C16.2242 10.7699 15.6477 10.3819 15.2701 10.0814V14.8522L15.2605 14.8373C15.2666 14.9319 15.2701 15.0282 15.2701 15.1254C15.2701 17.4946 13.3418 19.4232 10.971 19.4232C8.60022 19.4232 6.67188 17.4946 6.67188 15.1254C6.67188 12.7563 8.60022 10.8268 10.971 10.8268C11.2032 10.8268 11.431 10.8452 11.6535 10.8811V13.2073C11.4397 13.1311 11.2102 13.09 10.971 13.09C9.84869 13.09 8.9349 14.0026 8.9349 15.1254C8.9349 16.2482 9.84869 17.1609 10.971 17.1609C12.0933 17.1609 13.0071 16.2474 13.0071 15.1254C13.0071 15.0834 13.0062 15.0413 13.0036 14.9993V5.72852H15.363C15.3718 5.92821 15.3797 6.12965 15.3884 6.32935C15.4042 6.7226 15.5444 7.10008 15.7888 7.40925C16.0753 7.77273 16.4985 8.19488 17.0925 8.53208C17.6488 8.84651 18.171 8.98227 18.5407 9.0462V9.04445Z" fill="white"/>
</svg>
